<?xml version="1.0" encoding="utf-8" standalone="no"?>
<!DOCTYPE svg PUBLIC "-//W3C//DTD SVG 1.1//EN"
  "http://www.w3.org/Graphics/SVG/1.1/DTD/svg11.dtd">
<svg xmlns:xlink="http://www.w3.org/1999/xlink" width="612.493281pt" height="342.185156pt" viewBox="0 0 612.493281 342.185156" xmlns="http://www.w3.org/2000/svg" version="1.1">
 <metadata>
  <rdf:RDF xmlns:dc="http://purl.org/dc/elements/1.1/" xmlns:cc="http://creativecommons.org/ns#" xmlns:rdf="http://www.w3.org/1999/02/22-rdf-syntax-ns#">
   <cc:Work>
    <dc:type rdf:resource="http://purl.org/dc/dcmitype/StillImage"/>
    <dc:date>2025-09-18T14:48:12.600271</dc:date>
    <dc:format>image/svg+xml</dc:format>
    <dc:creator>
     <cc:Agent>
      <dc:title>Matplotlib v3.10.6, https://matplotlib.org/</dc:title>
     </cc:Agent>
    </dc:creator>
   </cc:Work>
  </rdf:RDF>
 </metadata>
 <defs>
  <style type="text/css">*{stroke-linejoin: round; stroke-linecap: butt}</style>
 </defs>
 <g id="figure_1">
  <g id="patch_1">
   <path d="M 0 342.185156 
L 612.493281 342.185156 
L 612.493281 0 
L 0 0 
z
" style="fill: #ffffff"/>
  </g>
  <g id="axes_1">
   <g id="patch_2">
    <path d="M 47.293281 284.4 
L 605.293281 284.4 
L 605.293281 7.2 
L 47.293281 7.2 
z
" style="fill: #eaeaf2"/>
   </g>
   <g id="matplotlib.axis_1">
    <g id="xtick_1">
     <g id="text_1">
      <!-- Dec 2017 -->
      <g style="fill: #262626" transform="translate(81.137813 334.985156) rotate(-90) scale(0.11 -0.11)">
       <defs>
        <path id="LiberationSans-44" d="M 4316 2247 
Q 4316 1566 4050 1055 
Q 3784 544 3296 272 
Q 2809 0 2172 0 
L 525 0 
L 525 4403 
L 1981 4403 
Q 3100 4403 3708 3842 
Q 4316 3281 4316 2247 
z
M 3716 2247 
Q 3716 3066 3267 3495 
Q 2819 3925 1969 3925 
L 1122 3925 
L 1122 478 
L 2103 478 
Q 2588 478 2955 690 
Q 3322 903 3519 1303 
Q 3716 1703 3716 2247 
z
" transform="scale(0.015625)"/>
        <path id="LiberationSans-65" d="M 863 1572 
Q 863 991 1103 675 
Q 1344 359 1806 359 
Q 2172 359 2392 506 
Q 2613 653 2691 878 
L 3184 738 
Q 2881 -63 1806 -63 
Q 1056 -63 664 384 
Q 272 831 272 1713 
Q 272 2550 664 2997 
Q 1056 3444 1784 3444 
Q 3275 3444 3275 1647 
L 3275 1572 
L 863 1572 
z
M 2694 2003 
Q 2647 2538 2422 2783 
Q 2197 3028 1775 3028 
Q 1366 3028 1127 2754 
Q 888 2481 869 2003 
L 2694 2003 
z
" transform="scale(0.015625)"/>
        <path id="LiberationSans-63" d="M 859 1706 
Q 859 1031 1071 706 
Q 1284 381 1713 381 
Q 2013 381 2214 543 
Q 2416 706 2463 1044 
L 3031 1006 
Q 2966 519 2616 228 
Q 2266 -63 1728 -63 
Q 1019 -63 645 385 
Q 272 834 272 1694 
Q 272 2547 647 2995 
Q 1022 3444 1722 3444 
Q 2241 3444 2583 3175 
Q 2925 2906 3013 2434 
L 2434 2391 
Q 2391 2672 2212 2837 
Q 2034 3003 1706 3003 
Q 1259 3003 1059 2706 
Q 859 2409 859 1706 
z
" transform="scale(0.015625)"/>
        <path id="LiberationSans-20" transform="scale(0.015625)"/>
        <path id="LiberationSans-32" d="M 322 0 
L 322 397 
Q 481 763 711 1042 
Q 941 1322 1194 1548 
Q 1447 1775 1695 1969 
Q 1944 2163 2144 2356 
Q 2344 2550 2467 2762 
Q 2591 2975 2591 3244 
Q 2591 3606 2378 3806 
Q 2166 4006 1788 4006 
Q 1428 4006 1195 3811 
Q 963 3616 922 3263 
L 347 3316 
Q 409 3844 795 4156 
Q 1181 4469 1788 4469 
Q 2453 4469 2811 4155 
Q 3169 3841 3169 3263 
Q 3169 3006 3051 2753 
Q 2934 2500 2703 2247 
Q 2472 1994 1819 1463 
Q 1459 1169 1246 933 
Q 1034 697 941 478 
L 3238 478 
L 3238 0 
L 322 0 
z
" transform="scale(0.015625)"/>
        <path id="LiberationSans-30" d="M 3309 2203 
Q 3309 1100 2920 518 
Q 2531 -63 1772 -63 
Q 1013 -63 631 515 
Q 250 1094 250 2203 
Q 250 3338 620 3903 
Q 991 4469 1791 4469 
Q 2569 4469 2939 3897 
Q 3309 3325 3309 2203 
z
M 2738 2203 
Q 2738 3156 2517 3584 
Q 2297 4013 1791 4013 
Q 1272 4013 1045 3591 
Q 819 3169 819 2203 
Q 819 1266 1048 831 
Q 1278 397 1778 397 
Q 2275 397 2506 840 
Q 2738 1284 2738 2203 
z
" transform="scale(0.015625)"/>
        <path id="LiberationSans-31" d="M 488 0 
L 488 478 
L 1609 478 
L 1609 3866 
L 616 3156 
L 616 3688 
L 1656 4403 
L 2175 4403 
L 2175 478 
L 3247 478 
L 3247 0 
L 488 0 
z
" transform="scale(0.015625)"/>
        <path id="LiberationSans-37" d="M 3238 3947 
Q 2563 2916 2284 2331 
Q 2006 1747 1867 1178 
Q 1728 609 1728 0 
L 1141 0 
Q 1141 844 1498 1776 
Q 1856 2709 2694 3925 
L 328 3925 
L 328 4403 
L 3238 4403 
L 3238 3947 
z
" transform="scale(0.015625)"/>
       </defs>
       <use xlink:href="#LiberationSans-44"/>
       <use xlink:href="#LiberationSans-65" transform="translate(72.216797 0)"/>
       <use xlink:href="#LiberationSans-63" transform="translate(127.832031 0)"/>
       <use xlink:href="#LiberationSans-20" transform="translate(177.832031 0)"/>
       <use xlink:href="#LiberationSans-32" transform="translate(205.615234 0)"/>
       <use xlink:href="#LiberationSans-30" transform="translate(261.230469 0)"/>
       <use xlink:href="#LiberationSans-31" transform="translate(316.845703 0)"/>
       <use xlink:href="#LiberationSans-37" transform="translate(372.460938 0)"/>
      </g>
     </g>
    </g>
    <g id="xtick_2">
     <g id="text_2">
      <!-- Dec 2018 -->
      <g style="fill: #262626" transform="translate(143.137812 334.985156) rotate(-90) scale(0.11 -0.11)">
       <defs>
        <path id="LiberationSans-38" d="M 3281 1228 
Q 3281 619 2893 278 
Q 2506 -63 1781 -63 
Q 1075 -63 676 271 
Q 278 606 278 1222 
Q 278 1653 525 1947 
Q 772 2241 1156 2303 
L 1156 2316 
Q 797 2400 589 2681 
Q 381 2963 381 3341 
Q 381 3844 757 4156 
Q 1134 4469 1769 4469 
Q 2419 4469 2795 4162 
Q 3172 3856 3172 3334 
Q 3172 2956 2962 2675 
Q 2753 2394 2391 2322 
L 2391 2309 
Q 2813 2241 3047 1952 
Q 3281 1663 3281 1228 
z
M 2588 3303 
Q 2588 4050 1769 4050 
Q 1372 4050 1164 3862 
Q 956 3675 956 3303 
Q 956 2925 1170 2726 
Q 1384 2528 1775 2528 
Q 2172 2528 2380 2711 
Q 2588 2894 2588 3303 
z
M 2697 1281 
Q 2697 1691 2453 1898 
Q 2209 2106 1769 2106 
Q 1341 2106 1100 1882 
Q 859 1659 859 1269 
Q 859 359 1788 359 
Q 2247 359 2472 579 
Q 2697 800 2697 1281 
z
" transform="scale(0.015625)"/>
       </defs>
       <use xlink:href="#LiberationSans-44"/>
       <use xlink:href="#LiberationSans-65" transform="translate(72.216797 0)"/>
       <use xlink:href="#LiberationSans-63" transform="translate(127.832031 0)"/>
       <use xlink:href="#LiberationSans-20" transform="translate(177.832031 0)"/>
       <use xlink:href="#LiberationSans-32" transform="translate(205.615234 0)"/>
       <use xlink:href="#LiberationSans-30" transform="translate(261.230469 0)"/>
       <use xlink:href="#LiberationSans-31" transform="translate(316.845703 0)"/>
       <use xlink:href="#LiberationSans-38" transform="translate(372.460938 0)"/>
      </g>
     </g>
    </g>
    <g id="xtick_3">
     <g id="text_3">
      <!-- Dec 2019 -->
      <g style="fill: #262626" transform="translate(205.137812 334.985156) rotate(-90) scale(0.11 -0.11)">
       <defs>
        <path id="LiberationSans-39" d="M 3256 2291 
Q 3256 1156 2842 546 
Q 2428 -63 1663 -63 
Q 1147 -63 836 154 
Q 525 372 391 856 
L 928 941 
Q 1097 391 1672 391 
Q 2156 391 2422 841 
Q 2688 1291 2700 2125 
Q 2575 1844 2272 1673 
Q 1969 1503 1606 1503 
Q 1013 1503 656 1909 
Q 300 2316 300 2988 
Q 300 3678 687 4073 
Q 1075 4469 1766 4469 
Q 2500 4469 2878 3925 
Q 3256 3381 3256 2291 
z
M 2644 2834 
Q 2644 3366 2400 3689 
Q 2156 4013 1747 4013 
Q 1341 4013 1106 3736 
Q 872 3459 872 2988 
Q 872 2506 1106 2226 
Q 1341 1947 1741 1947 
Q 1984 1947 2193 2058 
Q 2403 2169 2523 2372 
Q 2644 2575 2644 2834 
z
" transform="scale(0.015625)"/>
       </defs>
       <use xlink:href="#LiberationSans-44"/>
       <use xlink:href="#LiberationSans-65" transform="translate(72.216797 0)"/>
       <use xlink:href="#LiberationSans-63" transform="translate(127.832031 0)"/>
       <use xlink:href="#LiberationSans-20" transform="translate(177.832031 0)"/>
       <use xlink:href="#LiberationSans-32" transform="translate(205.615234 0)"/>
       <use xlink:href="#LiberationSans-30" transform="translate(261.230469 0)"/>
       <use xlink:href="#LiberationSans-31" transform="translate(316.845703 0)"/>
       <use xlink:href="#LiberationSans-39" transform="translate(372.460938 0)"/>
      </g>
     </g>
    </g>
    <g id="xtick_4">
     <g id="text_4">
      <!-- Dec 2020 -->
      <g style="fill: #262626" transform="translate(267.137812 334.985156) rotate(-90) scale(0.11 -0.11)">
       <use xlink:href="#LiberationSans-44"/>
       <use xlink:href="#LiberationSans-65" transform="translate(72.216797 0)"/>
       <use xlink:href="#LiberationSans-63" transform="translate(127.832031 0)"/>
       <use xlink:href="#LiberationSans-20" transform="translate(177.832031 0)"/>
       <use xlink:href="#LiberationSans-32" transform="translate(205.615234 0)"/>
       <use xlink:href="#LiberationSans-30" transform="translate(261.230469 0)"/>
       <use xlink:href="#LiberationSans-32" transform="translate(316.845703 0)"/>
       <use xlink:href="#LiberationSans-30" transform="translate(372.460938 0)"/>
      </g>
     </g>
    </g>
    <g id="xtick_5">
     <g id="text_5">
      <!-- Dec 2021 -->
      <g style="fill: #262626" transform="translate(329.137812 334.985156) rotate(-90) scale(0.11 -0.11)">
       <use xlink:href="#LiberationSans-44"/>
       <use xlink:href="#LiberationSans-65" transform="translate(72.216797 0)"/>
       <use xlink:href="#LiberationSans-63" transform="translate(127.832031 0)"/>
       <use xlink:href="#LiberationSans-20" transform="translate(177.832031 0)"/>
       <use xlink:href="#LiberationSans-32" transform="translate(205.615234 0)"/>
       <use xlink:href="#LiberationSans-30" transform="translate(261.230469 0)"/>
       <use xlink:href="#LiberationSans-32" transform="translate(316.845703 0)"/>
       <use xlink:href="#LiberationSans-31" transform="translate(372.460938 0)"/>
      </g>
     </g>
    </g>
    <g id="xtick_6">
     <g id="text_6">
      <!-- Dec 2022 -->
      <g style="fill: #262626" transform="translate(391.137812 334.985156) rotate(-90) scale(0.11 -0.11)">
       <use xlink:href="#LiberationSans-44"/>
       <use xlink:href="#LiberationSans-65" transform="translate(72.216797 0)"/>
       <use xlink:href="#LiberationSans-63" transform="translate(127.832031 0)"/>
       <use xlink:href="#LiberationSans-20" transform="translate(177.832031 0)"/>
       <use xlink:href="#LiberationSans-32" transform="translate(205.615234 0)"/>
       <use xlink:href="#LiberationSans-30" transform="translate(261.230469 0)"/>
       <use xlink:href="#LiberationSans-32" transform="translate(316.845703 0)"/>
       <use xlink:href="#LiberationSans-32" transform="translate(372.460938 0)"/>
      </g>
     </g>
    </g>
    <g id="xtick_7">
     <g id="text_7">
      <!-- Dec 2023 -->
      <g style="fill: #262626" transform="translate(453.137812 334.985156) rotate(-90) scale(0.11 -0.11)">
       <defs>
        <path id="LiberationSans-33" d="M 3278 1216 
Q 3278 606 2890 271 
Q 2503 -63 1784 -63 
Q 1116 -63 717 239 
Q 319 541 244 1131 
L 825 1184 
Q 938 403 1784 403 
Q 2209 403 2451 612 
Q 2694 822 2694 1234 
Q 2694 1594 2417 1795 
Q 2141 1997 1619 1997 
L 1300 1997 
L 1300 2484 
L 1606 2484 
Q 2069 2484 2323 2686 
Q 2578 2888 2578 3244 
Q 2578 3597 2370 3801 
Q 2163 4006 1753 4006 
Q 1381 4006 1151 3815 
Q 922 3625 884 3278 
L 319 3322 
Q 381 3863 767 4166 
Q 1153 4469 1759 4469 
Q 2422 4469 2789 4161 
Q 3156 3853 3156 3303 
Q 3156 2881 2920 2617 
Q 2684 2353 2234 2259 
L 2234 2247 
Q 2728 2194 3003 1916 
Q 3278 1638 3278 1216 
z
" transform="scale(0.015625)"/>
       </defs>
       <use xlink:href="#LiberationSans-44"/>
       <use xlink:href="#LiberationSans-65" transform="translate(72.216797 0)"/>
       <use xlink:href="#LiberationSans-63" transform="translate(127.832031 0)"/>
       <use xlink:href="#LiberationSans-20" transform="translate(177.832031 0)"/>
       <use xlink:href="#LiberationSans-32" transform="translate(205.615234 0)"/>
       <use xlink:href="#LiberationSans-30" transform="translate(261.230469 0)"/>
       <use xlink:href="#LiberationSans-32" transform="translate(316.845703 0)"/>
       <use xlink:href="#LiberationSans-33" transform="translate(372.460938 0)"/>
      </g>
     </g>
    </g>
    <g id="xtick_8">
     <g id="text_8">
      <!-- Dec 2024 -->
      <g style="fill: #262626" transform="translate(515.137813 334.985156) rotate(-90) scale(0.11 -0.11)">
       <defs>
        <path id="LiberationSans-34" d="M 2753 997 
L 2753 0 
L 2222 0 
L 2222 997 
L 147 997 
L 147 1434 
L 2163 4403 
L 2753 4403 
L 2753 1441 
L 3372 1441 
L 3372 997 
L 2753 997 
z
M 2222 3769 
Q 2216 3750 2134 3603 
Q 2053 3456 2013 3397 
L 884 1734 
L 716 1503 
L 666 1441 
L 2222 1441 
L 2222 3769 
z
" transform="scale(0.015625)"/>
       </defs>
       <use xlink:href="#LiberationSans-44"/>
       <use xlink:href="#LiberationSans-65" transform="translate(72.216797 0)"/>
       <use xlink:href="#LiberationSans-63" transform="translate(127.832031 0)"/>
       <use xlink:href="#LiberationSans-20" transform="translate(177.832031 0)"/>
       <use xlink:href="#LiberationSans-32" transform="translate(205.615234 0)"/>
       <use xlink:href="#LiberationSans-30" transform="translate(261.230469 0)"/>
       <use xlink:href="#LiberationSans-32" transform="translate(316.845703 0)"/>
       <use xlink:href="#LiberationSans-34" transform="translate(372.460938 0)"/>
      </g>
     </g>
    </g>
    <g id="xtick_9">
     <g id="text_9">
      <!-- Dec 2025 -->
      <g style="fill: #262626" transform="translate(577.137813 334.985156) rotate(-90) scale(0.11 -0.11)">
       <defs>
        <path id="LiberationSans-35" d="M 3291 1434 
Q 3291 738 2877 337 
Q 2463 -63 1728 -63 
Q 1113 -63 734 206 
Q 356 475 256 984 
L 825 1050 
Q 1003 397 1741 397 
Q 2194 397 2450 670 
Q 2706 944 2706 1422 
Q 2706 1838 2448 2094 
Q 2191 2350 1753 2350 
Q 1525 2350 1328 2278 
Q 1131 2206 934 2034 
L 384 2034 
L 531 4403 
L 3034 4403 
L 3034 3925 
L 1044 3925 
L 959 2528 
Q 1325 2809 1869 2809 
Q 2519 2809 2905 2428 
Q 3291 2047 3291 1434 
z
" transform="scale(0.015625)"/>
       </defs>
       <use xlink:href="#LiberationSans-44"/>
       <use xlink:href="#LiberationSans-65" transform="translate(72.216797 0)"/>
       <use xlink:href="#LiberationSans-63" transform="translate(127.832031 0)"/>
       <use xlink:href="#LiberationSans-20" transform="translate(177.832031 0)"/>
       <use xlink:href="#LiberationSans-32" transform="translate(205.615234 0)"/>
       <use xlink:href="#LiberationSans-30" transform="translate(261.230469 0)"/>
       <use xlink:href="#LiberationSans-32" transform="translate(316.845703 0)"/>
       <use xlink:href="#LiberationSans-35" transform="translate(372.460938 0)"/>
      </g>
     </g>
    </g>
   </g>
   <g id="matplotlib.axis_2">
    <g id="ytick_1">
     <g id="line2d_1">
      <path d="M 47.293281 284.4 
L 605.293281 284.4 
" clip-path="url(#p7986c050db)" style="fill: none; stroke: #ffffff; stroke-linecap: round"/>
     </g>
     <g id="text_10">
      <!-- 0.00 -->
      <g style="fill: #262626" transform="translate(22.38625 288.385781) scale(0.11 -0.11)">
       <defs>
        <path id="LiberationSans-2e" d="M 584 0 
L 584 684 
L 1194 684 
L 1194 0 
L 584 0 
z
" transform="scale(0.015625)"/>
       </defs>
       <use xlink:href="#LiberationSans-30"/>
       <use xlink:href="#LiberationSans-2e" transform="translate(55.615234 0)"/>
       <use xlink:href="#LiberationSans-30" transform="translate(83.398438 0)"/>
       <use xlink:href="#LiberationSans-30" transform="translate(139.013672 0)"/>
      </g>
     </g>
    </g>
    <g id="ytick_2">
     <g id="line2d_2">
      <path d="M 47.293281 245.805714 
L 605.293281 245.805714 
" clip-path="url(#p7986c050db)" style="fill: none; stroke: #ffffff; stroke-linecap: round"/>
     </g>
     <g id="text_11">
      <!-- 0.05 -->
      <g style="fill: #262626" transform="translate(22.38625 249.791496) scale(0.11 -0.11)">
       <use xlink:href="#LiberationSans-30"/>
       <use xlink:href="#LiberationSans-2e" transform="translate(55.615234 0)"/>
       <use xlink:href="#LiberationSans-30" transform="translate(83.398438 0)"/>
       <use xlink:href="#LiberationSans-35" transform="translate(139.013672 0)"/>
      </g>
     </g>
    </g>
    <g id="ytick_3">
     <g id="line2d_3">
      <path d="M 47.293281 207.211429 
L 605.293281 207.211429 
" clip-path="url(#p7986c050db)" style="fill: none; stroke: #ffffff; stroke-linecap: round"/>
     </g>
     <g id="text_12">
      <!-- 0.10 -->
      <g style="fill: #262626" transform="translate(22.38625 211.19721) scale(0.11 -0.11)">
       <use xlink:href="#LiberationSans-30"/>
       <use xlink:href="#LiberationSans-2e" transform="translate(55.615234 0)"/>
       <use xlink:href="#LiberationSans-31" transform="translate(83.398438 0)"/>
       <use xlink:href="#LiberationSans-30" transform="translate(139.013672 0)"/>
      </g>
     </g>
    </g>
    <g id="ytick_4">
     <g id="line2d_4">
      <path d="M 47.293281 168.617143 
L 605.293281 168.617143 
" clip-path="url(#p7986c050db)" style="fill: none; stroke: #ffffff; stroke-linecap: round"/>
     </g>
     <g id="text_13">
      <!-- 0.15 -->
      <g style="fill: #262626" transform="translate(22.38625 172.602924) scale(0.11 -0.11)">
       <use xlink:href="#LiberationSans-30"/>
       <use xlink:href="#LiberationSans-2e" transform="translate(55.615234 0)"/>
       <use xlink:href="#LiberationSans-31" transform="translate(83.398438 0)"/>
       <use xlink:href="#LiberationSans-35" transform="translate(139.013672 0)"/>
      </g>
     </g>
    </g>
    <g id="ytick_5">
     <g id="line2d_5">
      <path d="M 47.293281 130.022857 
L 605.293281 130.022857 
" clip-path="url(#p7986c050db)" style="fill: none; stroke: #ffffff; stroke-linecap: round"/>
     </g>
     <g id="text_14">
      <!-- 0.20 -->
      <g style="fill: #262626" transform="translate(22.38625 134.008638) scale(0.11 -0.11)">
       <use xlink:href="#LiberationSans-30"/>
       <use xlink:href="#LiberationSans-2e" transform="translate(55.615234 0)"/>
       <use xlink:href="#LiberationSans-32" transform="translate(83.398438 0)"/>
       <use xlink:href="#LiberationSans-30" transform="translate(139.013672 0)"/>
      </g>
     </g>
    </g>
    <g id="ytick_6">
     <g id="line2d_6">
      <path d="M 47.293281 91.428571 
L 605.293281 91.428571 
" clip-path="url(#p7986c050db)" style="fill: none; stroke: #ffffff; stroke-linecap: round"/>
     </g>
     <g id="text_15">
      <!-- 0.25 -->
      <g style="fill: #262626" transform="translate(22.38625 95.414353) scale(0.11 -0.11)">
       <use xlink:href="#LiberationSans-30"/>
       <use xlink:href="#LiberationSans-2e" transform="translate(55.615234 0)"/>
       <use xlink:href="#LiberationSans-32" transform="translate(83.398438 0)"/>
       <use xlink:href="#LiberationSans-35" transform="translate(139.013672 0)"/>
      </g>
     </g>
    </g>
    <g id="ytick_7">
     <g id="line2d_7">
      <path d="M 47.293281 52.834286 
L 605.293281 52.834286 
" clip-path="url(#p7986c050db)" style="fill: none; stroke: #ffffff; stroke-linecap: round"/>
     </g>
     <g id="text_16">
      <!-- 0.30 -->
      <g style="fill: #262626" transform="translate(22.38625 56.820067) scale(0.11 -0.11)">
       <use xlink:href="#LiberationSans-30"/>
       <use xlink:href="#LiberationSans-2e" transform="translate(55.615234 0)"/>
       <use xlink:href="#LiberationSans-33" transform="translate(83.398438 0)"/>
       <use xlink:href="#LiberationSans-30" transform="translate(139.013672 0)"/>
      </g>
     </g>
    </g>
    <g id="ytick_8">
     <g id="line2d_8">
      <path d="M 47.293281 14.24 
L 605.293281 14.24 
" clip-path="url(#p7986c050db)" style="fill: none; stroke: #ffffff; stroke-linecap: round"/>
     </g>
     <g id="text_17">
      <!-- 0.35 -->
      <g style="fill: #262626" transform="translate(22.38625 18.225781) scale(0.11 -0.11)">
       <use xlink:href="#LiberationSans-30"/>
       <use xlink:href="#LiberationSans-2e" transform="translate(55.615234 0)"/>
       <use xlink:href="#LiberationSans-33" transform="translate(83.398438 0)"/>
       <use xlink:href="#LiberationSans-35" transform="translate(139.013672 0)"/>
      </g>
     </g>
    </g>
    <g id="text_18">
     <!-- Fraction of NP recommended -->
     <g style="fill: #262626" transform="translate(15.89625 224.055937) rotate(-90) scale(0.12 -0.12)">
      <defs>
       <path id="LiberationSans-46" d="M 1122 3916 
L 1122 2278 
L 3578 2278 
L 3578 1784 
L 1122 1784 
L 1122 0 
L 525 0 
L 525 4403 
L 3653 4403 
L 3653 3916 
L 1122 3916 
z
" transform="scale(0.015625)"/>
       <path id="LiberationSans-72" d="M 444 0 
L 444 2594 
Q 444 2950 425 3381 
L 956 3381 
Q 981 2806 981 2691 
L 994 2691 
Q 1128 3125 1303 3284 
Q 1478 3444 1797 3444 
Q 1909 3444 2025 3413 
L 2025 2897 
Q 1913 2928 1725 2928 
Q 1375 2928 1190 2626 
Q 1006 2325 1006 1763 
L 1006 0 
L 444 0 
z
" transform="scale(0.015625)"/>
       <path id="LiberationSans-61" d="M 1294 -63 
Q 784 -63 528 206 
Q 272 475 272 944 
Q 272 1469 617 1750 
Q 963 2031 1731 2050 
L 2491 2063 
L 2491 2247 
Q 2491 2659 2316 2837 
Q 2141 3016 1766 3016 
Q 1388 3016 1216 2887 
Q 1044 2759 1009 2478 
L 422 2531 
Q 566 3444 1778 3444 
Q 2416 3444 2737 3151 
Q 3059 2859 3059 2306 
L 3059 850 
Q 3059 600 3125 473 
Q 3191 347 3375 347 
Q 3456 347 3559 369 
L 3559 19 
Q 3347 -31 3125 -31 
Q 2813 -31 2670 133 
Q 2528 297 2509 647 
L 2491 647 
Q 2275 259 1989 98 
Q 1703 -63 1294 -63 
z
M 1422 359 
Q 1731 359 1972 500 
Q 2213 641 2352 886 
Q 2491 1131 2491 1391 
L 2491 1669 
L 1875 1656 
Q 1478 1650 1273 1575 
Q 1069 1500 959 1344 
Q 850 1188 850 934 
Q 850 659 998 509 
Q 1147 359 1422 359 
z
" transform="scale(0.015625)"/>
       <path id="LiberationSans-74" d="M 1731 25 
Q 1453 -50 1163 -50 
Q 488 -50 488 716 
L 488 2972 
L 97 2972 
L 97 3381 
L 509 3381 
L 675 4138 
L 1050 4138 
L 1050 3381 
L 1675 3381 
L 1675 2972 
L 1050 2972 
L 1050 838 
Q 1050 594 1129 495 
Q 1209 397 1406 397 
Q 1519 397 1731 441 
L 1731 25 
z
" transform="scale(0.015625)"/>
       <path id="LiberationSans-69" d="M 428 4100 
L 428 4638 
L 991 4638 
L 991 4100 
L 428 4100 
z
M 428 0 
L 428 3381 
L 991 3381 
L 991 0 
L 428 0 
z
" transform="scale(0.015625)"/>
       <path id="LiberationSans-6f" d="M 3291 1694 
Q 3291 806 2900 371 
Q 2509 -63 1766 -63 
Q 1025 -63 647 389 
Q 269 841 269 1694 
Q 269 3444 1784 3444 
Q 2559 3444 2925 3017 
Q 3291 2591 3291 1694 
z
M 2700 1694 
Q 2700 2394 2492 2711 
Q 2284 3028 1794 3028 
Q 1300 3028 1079 2704 
Q 859 2381 859 1694 
Q 859 1025 1076 689 
Q 1294 353 1759 353 
Q 2266 353 2483 678 
Q 2700 1003 2700 1694 
z
" transform="scale(0.015625)"/>
       <path id="LiberationSans-6e" d="M 2578 0 
L 2578 2144 
Q 2578 2478 2512 2662 
Q 2447 2847 2303 2928 
Q 2159 3009 1881 3009 
Q 1475 3009 1240 2731 
Q 1006 2453 1006 1959 
L 1006 0 
L 444 0 
L 444 2659 
Q 444 3250 425 3381 
L 956 3381 
Q 959 3366 962 3297 
Q 966 3228 970 3139 
Q 975 3050 981 2803 
L 991 2803 
Q 1184 3153 1439 3298 
Q 1694 3444 2072 3444 
Q 2628 3444 2886 3167 
Q 3144 2891 3144 2253 
L 3144 0 
L 2578 0 
z
" transform="scale(0.015625)"/>
       <path id="LiberationSans-66" d="M 1128 2972 
L 1128 0 
L 566 0 
L 566 2972 
L 91 2972 
L 91 3381 
L 566 3381 
L 566 3763 
Q 566 4225 769 4428 
Q 972 4631 1391 4631 
Q 1625 4631 1788 4594 
L 1788 4166 
Q 1647 4191 1538 4191 
Q 1322 4191 1225 4081 
Q 1128 3972 1128 3684 
L 1128 3381 
L 1788 3381 
L 1788 2972 
L 1128 2972 
z
" transform="scale(0.015625)"/>
       <path id="LiberationSans-4e" d="M 3381 0 
L 1025 3750 
L 1041 3447 
L 1056 2925 
L 1056 0 
L 525 0 
L 525 4403 
L 1219 4403 
L 3600 628 
Q 3563 1241 3563 1516 
L 3563 4403 
L 4100 4403 
L 4100 0 
L 3381 0 
z
" transform="scale(0.015625)"/>
       <path id="LiberationSans-50" d="M 3931 3078 
Q 3931 2453 3523 2084 
Q 3116 1716 2416 1716 
L 1122 1716 
L 1122 0 
L 525 0 
L 525 4403 
L 2378 4403 
Q 3119 4403 3525 4056 
Q 3931 3709 3931 3078 
z
M 3331 3072 
Q 3331 3925 2306 3925 
L 1122 3925 
L 1122 2188 
L 2331 2188 
Q 3331 2188 3331 3072 
z
" transform="scale(0.015625)"/>
       <path id="LiberationSans-6d" d="M 2400 0 
L 2400 2144 
Q 2400 2634 2265 2821 
Q 2131 3009 1781 3009 
Q 1422 3009 1212 2734 
Q 1003 2459 1003 1959 
L 1003 0 
L 444 0 
L 444 2659 
Q 444 3250 425 3381 
L 956 3381 
Q 959 3366 962 3297 
Q 966 3228 970 3139 
Q 975 3050 981 2803 
L 991 2803 
Q 1172 3163 1406 3303 
Q 1641 3444 1978 3444 
Q 2363 3444 2586 3291 
Q 2809 3138 2897 2803 
L 2906 2803 
Q 3081 3144 3329 3294 
Q 3578 3444 3931 3444 
Q 4444 3444 4676 3166 
Q 4909 2888 4909 2253 
L 4909 0 
L 4353 0 
L 4353 2144 
Q 4353 2634 4218 2821 
Q 4084 3009 3734 3009 
Q 3366 3009 3161 2736 
Q 2956 2463 2956 1959 
L 2956 0 
L 2400 0 
z
" transform="scale(0.015625)"/>
       <path id="LiberationSans-64" d="M 2566 544 
Q 2409 219 2151 78 
Q 1894 -63 1513 -63 
Q 872 -63 570 368 
Q 269 800 269 1675 
Q 269 3444 1513 3444 
Q 1897 3444 2153 3303 
Q 2409 3163 2566 2856 
L 2572 2856 
L 2566 3234 
L 2566 4638 
L 3128 4638 
L 3128 697 
Q 3128 169 3147 0 
L 2609 0 
Q 2600 50 2589 231 
Q 2578 413 2578 544 
L 2566 544 
z
M 859 1694 
Q 859 984 1046 678 
Q 1234 372 1656 372 
Q 2134 372 2350 703 
Q 2566 1034 2566 1731 
Q 2566 2403 2350 2715 
Q 2134 3028 1663 3028 
Q 1238 3028 1048 2714 
Q 859 2400 859 1694 
z
" transform="scale(0.015625)"/>
      </defs>
      <use xlink:href="#LiberationSans-46"/>
      <use xlink:href="#LiberationSans-72" transform="translate(61.083984 0)"/>
      <use xlink:href="#LiberationSans-61" transform="translate(94.384766 0)"/>
      <use xlink:href="#LiberationSans-63" transform="translate(150 0)"/>
      <use xlink:href="#LiberationSans-74" transform="translate(200 0)"/>
      <use xlink:href="#LiberationSans-69" transform="translate(227.783203 0)"/>
      <use xlink:href="#LiberationSans-6f" transform="translate(250 0)"/>
      <use xlink:href="#LiberationSans-6e" transform="translate(305.615234 0)"/>
      <use xlink:href="#LiberationSans-20" transform="translate(361.230469 0)"/>
      <use xlink:href="#LiberationSans-6f" transform="translate(389.013672 0)"/>
      <use xlink:href="#LiberationSans-66" transform="translate(444.628906 0)"/>
      <use xlink:href="#LiberationSans-20" transform="translate(472.412109 0)"/>
      <use xlink:href="#LiberationSans-4e" transform="translate(500.195312 0)"/>
      <use xlink:href="#LiberationSans-50" transform="translate(572.412109 0)"/>
      <use xlink:href="#LiberationSans-20" transform="translate(637.361328 0)"/>
      <use xlink:href="#LiberationSans-72" transform="translate(665.144531 0)"/>
      <use xlink:href="#LiberationSans-65" transform="translate(698.445312 0)"/>
      <use xlink:href="#LiberationSans-63" transform="translate(754.060547 0)"/>
      <use xlink:href="#LiberationSans-6f" transform="translate(804.060547 0)"/>
      <use xlink:href="#LiberationSans-6d" transform="translate(859.675781 0)"/>
      <use xlink:href="#LiberationSans-6d" transform="translate(942.976562 0)"/>
      <use xlink:href="#LiberationSans-65" transform="translate(1026.277344 0)"/>
      <use xlink:href="#LiberationSans-6e" transform="translate(1081.892578 0)"/>
      <use xlink:href="#LiberationSans-64" transform="translate(1137.507812 0)"/>
      <use xlink:href="#LiberationSans-65" transform="translate(1193.123047 0)"/>
      <use xlink:href="#LiberationSans-64" transform="translate(1248.738281 0)"/>
     </g>
    </g>
   </g>
   <g id="patch_3">
    <path d="M 53.493281 284.4 
L 103.093281 284.4 
L 103.093281 95.366764 
L 53.493281 95.366764 
z
" clip-path="url(#p7986c050db)" style="fill: #5875a4; stroke: #ffffff; stroke-linejoin: miter"/>
   </g>
   <g id="patch_4">
    <path d="M 115.493281 284.4 
L 165.093281 284.4 
L 165.093281 107.152169 
L 115.493281 107.152169 
z
" clip-path="url(#p7986c050db)" style="fill: #5875a4; stroke: #ffffff; stroke-linejoin: miter"/>
   </g>
   <g id="patch_5">
    <path d="M 177.493281 284.4 
L 227.093281 284.4 
L 227.093281 88.48992 
L 177.493281 88.48992 
z
" clip-path="url(#p7986c050db)" style="fill: #5875a4; stroke: #ffffff; stroke-linejoin: miter"/>
   </g>
   <g id="patch_6">
    <path d="M 239.493281 284.4 
L 289.093281 284.4 
L 289.093281 113.311929 
L 239.493281 113.311929 
z
" clip-path="url(#p7986c050db)" style="fill: #5875a4; stroke: #ffffff; stroke-linejoin: miter"/>
   </g>
   <g id="patch_7">
    <path d="M 301.493281 284.4 
L 351.093281 284.4 
L 351.093281 128.638309 
L 301.493281 128.638309 
z
" clip-path="url(#p7986c050db)" style="fill: #5875a4; stroke: #ffffff; stroke-linejoin: miter"/>
   </g>
   <g id="patch_8">
    <path d="M 363.493281 284.4 
L 413.093281 284.4 
L 413.093281 166.503911 
L 363.493281 166.503911 
z
" clip-path="url(#p7986c050db)" style="fill: #5875a4; stroke: #ffffff; stroke-linejoin: miter"/>
   </g>
   <g id="patch_9">
    <path d="M 425.493281 284.4 
L 475.093281 284.4 
L 475.093281 109.539159 
L 425.493281 109.539159 
z
" clip-path="url(#p7986c050db)" style="fill: #5875a4; stroke: #ffffff; stroke-linejoin: miter"/>
   </g>
   <g id="patch_10">
    <path d="M 487.493281 284.4 
L 537.093281 284.4 
L 537.093281 20.4 
L 487.493281 20.4 
z
" clip-path="url(#p7986c050db)" style="fill: #5875a4; stroke: #ffffff; stroke-linejoin: miter"/>
   </g>
   <g id="patch_11">
    <path d="M 549.493281 284.4 
L 599.093281 284.4 
L 599.093281 75.347619 
L 549.493281 75.347619 
z
" clip-path="url(#p7986c050db)" style="fill: #5875a4; stroke: #ffffff; stroke-linejoin: miter"/>
   </g>
   <g id="line2d_9">
    <path clip-path="url(#p7986c050db)" style="fill: none; stroke: #424242; stroke-width: 2.25; stroke-linecap: round"/>
   </g>
   <g id="line2d_10">
    <path clip-path="url(#p7986c050db)" style="fill: none; stroke: #424242; stroke-width: 2.25; stroke-linecap: round"/>
   </g>
   <g id="line2d_11">
    <path clip-path="url(#p7986c050db)" style="fill: none; stroke: #424242; stroke-width: 2.25; stroke-linecap: round"/>
   </g>
   <g id="line2d_12">
    <path clip-path="url(#p7986c050db)" style="fill: none; stroke: #424242; stroke-width: 2.25; stroke-linecap: round"/>
   </g>
   <g id="line2d_13">
    <path clip-path="url(#p7986c050db)" style="fill: none; stroke: #424242; stroke-width: 2.25; stroke-linecap: round"/>
   </g>
   <g id="line2d_14">
    <path clip-path="url(#p7986c050db)" style="fill: none; stroke: #424242; stroke-width: 2.25; stroke-linecap: round"/>
   </g>
   <g id="line2d_15">
    <path clip-path="url(#p7986c050db)" style="fill: none; stroke: #424242; stroke-width: 2.25; stroke-linecap: round"/>
   </g>
   <g id="line2d_16">
    <path clip-path="url(#p7986c050db)" style="fill: none; stroke: #424242; stroke-width: 2.25; stroke-linecap: round"/>
   </g>
   <g id="line2d_17">
    <path clip-path="url(#p7986c050db)" style="fill: none; stroke: #424242; stroke-width: 2.25; stroke-linecap: round"/>
   </g>
   <g id="patch_12">
    <path d="M 47.293281 284.4 
L 47.293281 7.2 
" style="fill: none"/>
   </g>
   <g id="patch_13">
    <path d="M 605.293281 284.4 
L 605.293281 7.2 
" style="fill: none"/>
   </g>
   <g id="patch_14">
    <path d="M 47.293281 284.4 
L 605.293281 284.4 
" style="fill: none"/>
   </g>
   <g id="patch_15">
    <path d="M 47.293281 7.2 
L 605.293281 7.2 
" style="fill: none"/>
   </g>
  </g>
 </g>
 <defs>
  <clipPath id="p7986c050db">
   <rect x="47.293281" y="7.2" width="558" height="277.2"/>
  </clipPath>
 </defs>
</svg>
